<svg xmlns="http://www.w3.org/2000/svg" viewBox="0 0 64 64" role="img" aria-label="뷰티메이트">
  <rect width="64" height="64" rx="19" fill="#6D2945"/>
  <path d="M32 12c5.7 7.2 8.6 13.7 8.6 19.5C40.6 41.2 34.1 49 32 49c-2.1 0-8.6-7.8-8.6-17.5C23.4 25.7 26.3 19.2 32 12Z" fill="#F7D4DD"/>
  <path d="M12 31.5c7.2-5.7 13.7-8.6 19.5-8.6 9.7 0 17.5 6.5 17.5 8.6 0 2.1-7.8 8.6-17.5 8.6-5.8 0-12.3-2.9-19.5-8.6Z" fill="#EAA7B8" fill-opacity=".92"/>
  <circle cx="32" cy="31.5" r="7" fill="#6D2945"/>
  <path d="m49 9 1.6 3.9 3.9 1.6-3.9 1.6L49 20l-1.6-3.9-3.9-1.6 3.9-1.6L49 9Z" fill="#FFF7F8"/>
</svg>
